<svg width="24" height="23" viewBox="0 0 24 23" fill="none" xmlns="http://www.w3.org/2000/svg">
<path d="M10.3739 13.0588V9.80478H10.3529L9.04287 13.0588H8.54287L7.23187 9.80478H7.20987V13.0588H6.59587V8.63778H7.37587L8.78087 12.1608H8.80487L10.2069 8.63778H10.9899V13.0588H10.3739ZM14.3859 13.0588H13.7629V12.5138H13.7479C13.5729 12.8998 13.2509 13.1168 12.7669 13.1168C12.0769 13.1168 11.6559 12.6608 11.6559 11.9218V9.83578H12.3059V11.7938C12.3059 12.2838 12.5349 12.5468 12.9829 12.5468C13.4529 12.5468 13.7359 12.2168 13.7359 11.7138V9.83578H14.3859V13.0588ZM16.1669 9.77778C16.9049 9.77778 17.3829 10.1938 17.4049 10.7878H16.7939C16.7569 10.4758 16.5319 10.2798 16.1669 10.2798C15.8149 10.2798 15.5799 10.4548 15.5799 10.7118C15.5799 10.9138 15.7249 11.0518 16.0679 11.1318L16.5829 11.2518C17.2299 11.4038 17.4769 11.6618 17.4769 12.1268C17.4769 12.7158 16.9369 13.1198 16.1919 13.1198C15.3999 13.1198 14.9239 12.7248 14.8639 12.1118H15.5079C15.5665 12.4478 15.7945 12.6154 16.1919 12.6148C16.5819 12.6148 16.8239 12.4488 16.8239 12.1848C16.8239 11.9768 16.7059 11.8548 16.3599 11.7748L15.8449 11.6528C15.2429 11.5118 14.9449 11.2178 14.9449 10.7488C14.9449 10.1728 15.4389 9.77778 16.1669 9.77778ZM17.9269 8.98378C17.9269 8.88433 17.9664 8.78894 18.0367 8.71862C18.107 8.64829 18.2024 8.60878 18.3019 8.60878C18.4013 8.60878 18.4967 8.64829 18.567 8.71862C18.6374 8.78894 18.6769 8.88433 18.6769 8.98378C18.6769 9.19178 18.5119 9.36378 18.3039 9.36378C18.2038 9.36273 18.1082 9.32223 18.0378 9.25108C17.9674 9.17993 17.9269 9.08387 17.9269 8.98378ZM17.9799 9.83578H18.6299V13.0588H17.9799V9.83578ZM21.3749 10.9448C21.3089 10.6018 21.0549 10.3288 20.6309 10.3288C20.1289 10.3288 19.7979 10.7548 19.7979 11.4468C19.7979 12.1548 20.1319 12.5658 20.6379 12.5658C21.0379 12.5658 21.2999 12.3418 21.3749 11.9678H21.9999C21.9299 12.6538 21.3919 13.1198 20.6299 13.1198C19.7249 13.1198 19.1349 12.4888 19.1349 11.4468C19.1349 10.4238 19.7249 9.77678 20.6249 9.77678C21.4399 9.77678 21.9369 10.3108 21.9939 10.9448H21.3749ZM4.60787 9.06878C4.43987 9.26978 4.17287 9.42878 3.90587 9.40578C3.87087 9.13378 4.00487 8.84478 4.15587 8.66778C4.33086 8.45902 4.58076 8.32725 4.85187 8.30078C4.88087 8.58478 4.77087 8.86078 4.60787 9.06878ZM4.84787 9.45978C4.99887 9.47178 5.43287 9.51978 5.71087 9.93678C5.68787 9.95478 5.19587 10.2438 5.20087 10.8508C5.20787 11.5758 5.82687 11.8168 5.83187 11.8238C5.82687 11.8408 5.73387 12.1648 5.50887 12.5008C5.31187 12.7958 5.10887 13.0848 4.78487 13.0908C4.47287 13.0958 4.36787 12.9018 4.00987 12.9018C3.65187 12.9018 3.53487 13.0848 3.23987 13.0958C2.92787 13.1078 2.68987 12.7838 2.49387 12.4888C2.08887 11.8938 1.78187 10.8088 2.19887 10.0788C2.40087 9.71378 2.77187 9.48378 3.17087 9.47778C3.47787 9.47178 3.76087 9.68378 3.94587 9.68378C4.13087 9.68378 4.45987 9.43678 4.84787 9.45978Z" fill="white"/>
</svg>
