<svg width="24" height="23" viewBox="0 0 24 23" fill="none" xmlns="http://www.w3.org/2000/svg">
<g clip-path="url(#clip0_105_2074)">
<path d="M0.693 8.73396C1.074 8.73396 1.386 7.47796 1.386 5.92696C1.386 4.37596 1.074 3.11996 0.693 3.11996C0.312 3.11996 0 4.37596 0 5.92696C0 7.47796 0.312 8.73396 0.693 8.73396ZM21.038 0.269961C20.674 0.269961 20.354 1.07496 20.128 2.36596C19.765 0.155961 19.184 -1.29004 18.526 -1.29004C17.746 -1.29004 17.062 0.745961 16.742 3.70996C16.43 1.55196 15.954 0.173961 15.417 0.173961C14.672 0.173961 14.031 2.87796 13.797 6.64596C13.355 4.71396 12.714 3.50096 12.004 3.50096C11.294 3.50096 10.654 4.71396 10.211 6.64596C9.969 2.88596 9.337 0.182961 8.583 0.182961C8.046 0.182961 7.57 1.56096 7.258 3.71796C6.938 0.745961 6.262 -1.29004 5.474 -1.29004C4.816 -1.29004 4.227 0.156961 3.872 2.37496C3.655 1.08396 3.326 0.269961 2.962 0.269961C2.287 0.269961 1.741 3.07696 1.741 6.54196C1.741 10.007 2.287 12.815 2.962 12.815C3.239 12.815 3.499 12.339 3.698 11.542C4.018 14.47 4.694 16.48 5.474 16.48C6.08 16.48 6.617 15.276 6.981 13.37C7.232 16.992 7.856 19.565 8.583 19.565C9.043 19.565 9.458 18.542 9.77 16.888C10.142 20.31 11 22.71 12.004 22.71C13.008 22.71 13.867 20.31 14.239 16.888C14.551 18.542 14.966 19.565 15.425 19.565C16.153 19.565 16.777 16.992 17.028 13.37C17.392 15.276 17.928 16.48 18.535 16.48C19.315 16.48 19.99 14.47 20.31 11.542C20.518 12.339 20.77 12.815 21.047 12.815C21.722 12.815 22.267 10.008 22.267 6.54196C22.259 3.08496 21.715 0.269961 21.038 0.269961ZM23.307 8.73396C23.688 8.73396 24 7.47796 24 5.92696C24 4.37596 23.688 3.11996 23.307 3.11996C22.926 3.11996 22.614 4.37596 22.614 5.92696C22.614 7.47796 22.926 8.73396 23.307 8.73396Z" fill="white"/>
</g>
<defs>
<clipPath id="clip0_105_2074">
<rect width="24" height="24" fill="white" transform="translate(0 -1.29004)"/>
</clipPath>
</defs>
</svg>
