<svg width="34" height="24" viewBox="0 0 34 24" fill="none" xmlns="http://www.w3.org/2000/svg">
<path d="M13.4443 11.6669C13.4443 12.6099 13.8189 13.5142 14.4857 14.181C15.1525 14.8478 16.0569 15.2224 16.9999 15.2224C17.9429 15.2224 18.8473 14.8478 19.514 14.181C20.1808 13.5142 20.5554 12.6099 20.5554 11.6669C20.5554 10.7239 20.1808 9.81952 19.514 9.15273C18.8473 8.48593 17.9429 8.11133 16.9999 8.11133C16.0569 8.11133 15.1525 8.48593 14.4857 9.15273C13.8189 9.81952 13.4443 10.7239 13.4443 11.6669Z" stroke="white" stroke-width="2" stroke-linecap="round" stroke-linejoin="round"/>
<path d="M33 11.6667C28.7333 18.7778 23.4 22.3333 17 22.3333C10.6 22.3333 5.26667 18.7778 1 11.6667C5.26667 4.55556 10.6 1 17 1C23.4 1 28.7333 4.55556 33 11.6667Z" stroke="white" stroke-width="2" stroke-linecap="round" stroke-linejoin="round"/>
</svg>
