<svg width="15" height="10" viewBox="0 0 15 10" fill="none" xmlns="http://www.w3.org/2000/svg">
<path d="M5.75 5C5.75 5.39782 5.90804 5.77936 6.18934 6.06066C6.47064 6.34196 6.85218 6.5 7.25 6.5C7.64782 6.5 8.02936 6.34196 8.31066 6.06066C8.59196 5.77936 8.75 5.39782 8.75 5C8.75 4.60218 8.59196 4.22064 8.31066 3.93934C8.02936 3.65804 7.64782 3.5 7.25 3.5C6.85218 3.5 6.47064 3.65804 6.18934 3.93934C5.90804 4.22064 5.75 4.60218 5.75 5Z" stroke="#757575" stroke-linecap="round" stroke-linejoin="round"/>
<path d="M14 5C12.2 8 9.95 9.5 7.25 9.5C4.55 9.5 2.3 8 0.5 5C2.3 2 4.55 0.5 7.25 0.5C9.95 0.5 12.2 2 14 5Z" stroke="#757575" stroke-linecap="round" stroke-linejoin="round"/>
</svg>
