<svg width="24" height="23" viewBox="0 0 24 23" fill="none" xmlns="http://www.w3.org/2000/svg">
<path d="M2 10.71C2 5.18996 6.48 0.709961 12 0.709961C17.52 0.709961 22 5.18996 22 10.71C22 16.23 17.52 20.71 12 20.71C6.48 20.71 2 16.23 2 10.71Z" stroke="white" stroke-width="1.5" stroke-linecap="round" stroke-linejoin="round"/>
<path d="M8.62988 14.02C10.8099 13.44 13.1199 13.68 15.1299 14.71" stroke="white" stroke-width="1.5" stroke-linecap="round" stroke-linejoin="round"/>
<path d="M7.5 10.78C8.6 10.41 9.78 10.21 11 10.21C13.02 10.21 14.92 10.76 16.55 11.71" stroke="white" stroke-width="1.5" stroke-linecap="round" stroke-linejoin="round"/>
<path d="M7 7.61996C8.38 7.02996 9.9 6.70996 11.5 6.70996C13.91 6.70996 16.15 7.44996 18 8.70996" stroke="white" stroke-width="1.5" stroke-linecap="round" stroke-linejoin="round"/>
</svg>
